<?xml version="1.0" standalone="no"?>
<!DOCTYPE svg PUBLIC "-//W3C//DTD SVG 20010904//EN"
 "http://www.w3.org/TR/2001/REC-SVG-20010904/DTD/svg10.dtd">
<svg version="1.0" xmlns="http://www.w3.org/2000/svg"
 width="2350.000000pt" height="838.000000pt" viewBox="0 0 2350.000000 838.000000"
 preserveAspectRatio="xMidYMid meet">

<g transform="translate(0.000000,838.000000) scale(0.100000,-0.100000)"
fill="#000000" stroke="none">
<path d="M140 4150 l0 -4000 4000 0 4000 0 0 4000 0 4000 -4000 0 -4000 0 0
-4000z m2541 3660 c469 -48 880 -238 1213 -560 184 -179 301 -338 412 -565
380 -775 221 -1706 -398 -2317 -325 -321 -745 -518 -1209 -569 -132 -15 -413
-6 -539 16 -657 117 -1211 536 -1489 1125 -142 302 -198 580 -188 929 8 267
45 451 141 689 209 516 618 919 1145 1126 122 48 330 101 451 115 52 6 109 13
125 15 67 7 239 5 336 -4z"/>
<path d="M3437 4830 c-95 -24 -177 -91 -223 -182 -39 -75 -45 -190 -14 -270
26 -71 97 -151 164 -186 45 -24 62 -27 151 -27 120 0 172 21 247 97 62 64 91
139 92 238 0 88 -28 161 -89 229 -74 82 -222 127 -328 101z"/>
<path d="M9655 7265 c-132 -30 -209 -69 -298 -154 -68 -64 -119 -150 -141
-236 -20 -75 -20 -224 -1 -298 45 -174 182 -312 369 -374 72 -23 97 -27 221
-27 163 -1 208 11 326 90 66 43 179 163 179 188 0 6 -24 28 -53 49 l-52 38
-40 -48 c-129 -155 -230 -206 -362 -182 -165 31 -274 152 -304 338 -29 174 44
362 169 438 157 97 316 63 466 -99 l73 -78 56 41 57 40 -25 37 c-14 20 -51 63
-82 95 -64 65 -180 127 -271 146 -71 15 -213 13 -287 -4z"/>
<path d="M10995 7270 c-310 -48 -509 -281 -492 -575 14 -233 148 -407 377
-490 101 -37 270 -46 384 -21 155 35 304 136 373 253 96 165 105 362 23 530
-67 137 -209 246 -375 288 -77 20 -213 27 -290 15z m233 -114 c51 -26 112 -93
138 -151 72 -156 71 -405 -1 -563 -54 -118 -174 -193 -288 -178 -157 21 -253
153 -276 378 -25 255 49 448 199 518 55 26 175 24 228 -4z"/>
<path d="M18135 7270 c-310 -48 -509 -281 -492 -575 14 -233 148 -407 377
-490 101 -37 270 -46 384 -21 155 35 304 136 373 253 96 165 105 362 23 530
-67 137 -209 246 -375 288 -77 20 -213 27 -290 15z m233 -114 c51 -26 112 -93
138 -151 72 -156 71 -405 -1 -563 -54 -118 -174 -193 -288 -178 -157 21 -253
153 -276 378 -25 255 49 448 199 518 55 26 175 24 228 -4z"/>
<path d="M20276 6758 c-136 -288 -252 -527 -256 -531 -6 -6 -315 396 -353 459
-5 9 10 20 47 37 117 54 178 139 177 249 0 76 -28 134 -88 188 -90 79 -221
103 -538 98 l-180 -3 -3 -532 -2 -533 135 0 135 0 0 240 c0 224 1 240 18 240
11 0 79 -83 196 -240 l177 -240 225 0 225 0 69 145 69 145 203 0 203 0 66
-142 65 -143 137 -3 c75 -1 137 -1 137 1 0 2 -112 246 -248 543 l-248 539 -60
3 -59 3 -249 -523z m-741 362 c63 -39 96 -133 75 -211 -23 -83 -108 -139 -214
-139 l-46 0 0 191 0 192 75 -6 c52 -4 86 -12 110 -27z m1079 -371 c36 -80 66
-151 66 -158 0 -8 -43 -11 -145 -11 -91 0 -145 4 -145 10 0 20 145 319 151
312 3 -4 36 -73 73 -153z"/>
<path d="M11947 7253 c-4 -3 -7 -244 -7 -535 l0 -528 85 0 85 0 2 358 3 359
325 -369 325 -369 55 3 55 3 0 540 0 540 -80 0 -80 0 -5 -330 -5 -330 -298
332 -299 333 -77 0 c-43 0 -81 -3 -84 -7z"/>
<path d="M13050 7210 l0 -50 180 0 180 0 0 -485 0 -485 135 0 135 0 0 485 0
485 180 0 180 0 0 50 0 50 -495 0 -495 0 0 -50z"/>
<path d="M14217 7253 c-4 -3 -7 -244 -7 -535 l0 -528 400 0 400 0 0 55 0 55
-265 0 -265 0 0 210 0 210 221 0 220 0 -3 48 -3 47 -217 3 -218 2 0 170 0 170
266 0 265 0 -3 48 -3 47 -391 3 c-215 1 -393 -1 -397 -5z"/>
<path d="M15167 7253 c-4 -3 -7 -244 -7 -535 l0 -528 85 0 85 0 2 339 3 340
173 -340 173 -339 55 0 54 0 169 338 170 337 0 -337 1 -338 130 0 130 0 0 535
0 535 -123 0 -122 0 -181 -362 -181 -362 -183 362 -183 362 -122 0 c-67 0
-125 -3 -128 -7z"/>
<path d="M16667 7253 c-4 -3 -7 -244 -7 -535 l0 -528 135 0 135 0 0 229 0 228
123 6 c173 8 256 37 334 117 53 54 68 95 68 186 0 72 -3 86 -30 129 -61 98
-158 147 -325 165 -113 11 -423 14 -433 3z m420 -129 c19 -10 47 -35 61 -57
23 -35 27 -51 27 -117 0 -67 -4 -82 -27 -118 -35 -52 -68 -69 -152 -78 l-66
-7 0 203 0 203 61 -7 c33 -3 76 -13 96 -22z"/>
<path d="M21287 7253 c-4 -3 -7 -244 -7 -535 l0 -528 135 0 135 0 0 240 c0
224 1 240 18 240 11 0 79 -83 196 -240 l177 -240 145 0 c114 0 144 3 138 13
-5 6 -85 116 -179 242 -94 127 -174 235 -178 242 -5 7 12 20 47 36 117 54 178
139 177 249 0 76 -28 134 -88 188 -58 51 -132 78 -246 90 -104 11 -460 13
-470 3z m448 -133 c63 -39 96 -133 75 -211 -23 -83 -108 -139 -214 -139 l-46
0 0 191 0 192 75 -6 c52 -4 86 -12 110 -27z"/>
<path d="M22203 7247 c3 -7 104 -150 226 -317 l221 -304 0 -218 0 -218 130 0
130 0 0 228 0 228 205 297 c113 163 205 302 205 307 0 6 -35 10 -84 10 -100 0
-68 32 -271 -265 -75 -110 -141 -200 -145 -200 -5 0 -85 104 -178 230 l-168
230 -138 3 c-112 2 -137 0 -133 -11z"/>
<path d="M10582 3968 c-87 -186 -1426 -2986 -1443 -3021 l-19 -37 257 0 258 0
200 418 201 417 598 0 599 0 191 -417 191 -418 383 0 c210 0 382 3 382 7 0 10
-1422 3105 -1433 3121 -7 9 -53 12 -168 12 l-158 0 -39 -82z m298 -1446 c122
-266 220 -485 218 -488 -3 -2 -210 -3 -461 -2 l-457 3 233 492 c127 270 235
489 239 485 4 -4 106 -224 228 -490z"/>
<path d="M15150 2446 l0 -1536 375 0 375 0 0 695 0 695 68 0 67 0 515 -695
515 -695 408 0 c324 0 407 3 401 13 -4 6 -248 335 -541 730 -294 394 -532 721
-529 726 3 4 34 18 68 31 321 116 559 354 608 608 20 99 8 270 -24 367 -102
303 -366 492 -801 572 -77 14 -192 17 -797 20 l-708 4 0 -1535z m1186 1220
c186 -49 322 -207 360 -416 46 -255 -56 -485 -266 -594 -120 -62 -187 -78
-367 -83 l-163 -6 0 557 0 556 193 0 c130 0 208 -5 243 -14z"/>
<path d="M20370 3850 l0 -130 535 0 535 0 0 -1405 0 -1405 375 0 375 0 0 1405
0 1405 530 0 530 0 0 130 0 130 -1440 0 -1440 0 0 -130z"/>
</g>
</svg>
